<svg width="164" height="48" viewBox="0 0 164 48" fill="none" xmlns="http://www.w3.org/2000/svg">
  <path fill-rule="evenodd" clip-rule="evenodd" d="M20.3046 0H46.8572V47.5102H0V0H16.1395V5.27888H16.1399V5.27891V22.6632L19.2462 19.5135L19.3054 19.5736L27.677 11.0854H36.5077L36.51 11.0878L23.7232 24.053L41.6502 42.2298V5.27892L20.3046 5.27891V0ZM32.8162 42.2313L16.1399 25.3226V36.9524H10.9336V5.27892H5.20572V42.2313H32.8162Z" fill="#FF780D"/>
  <path d="M57.4334 35.7388V12.0893H67.5295C69.6177 12.0893 71.4169 12.4384 72.9275 13.1366C74.438 13.8123 75.6042 14.7921 76.4261 16.0759C77.248 17.3598 77.659 18.8913 77.659 20.6706C77.659 22.4275 77.248 23.9478 76.4261 25.2317C75.6042 26.5155 74.438 27.5065 72.9275 28.2048C71.4169 28.8804 69.6177 29.2182 67.5295 29.2182H60.4322L62.8313 26.752V35.7388H57.4334ZM62.8313 27.3601L60.4322 24.7587H67.2297C68.8956 24.7587 70.1397 24.3983 70.9615 23.6775C71.7835 22.9568 72.1944 21.9545 72.1944 20.6706C72.1944 19.3644 71.7835 18.3508 70.9615 17.63C70.1397 16.9092 68.8956 16.5489 67.2297 16.5489H60.4322L62.8313 13.9475V27.3601ZM81.5127 35.7388V12.0893H91.6092C93.6972 12.0893 95.4962 12.4384 97.0068 13.1366C98.5175 13.8123 99.6832 14.7921 100.506 16.0759C101.327 17.3598 101.738 18.8913 101.738 20.6706C101.738 22.4275 101.327 23.9478 100.506 25.2317C99.6832 26.493 98.5175 27.4614 97.0068 28.1371C95.4962 28.8129 93.6972 29.1507 91.6092 29.1507H84.5116L86.9107 26.752V35.7388H81.5127ZM96.3407 35.7388L90.5094 27.1574H96.2739L102.171 35.7388H96.3407ZM86.9107 27.3601L84.5116 24.7925H91.3091C92.9753 24.7925 94.2188 24.432 95.0405 23.7114C95.8631 22.968 96.2739 21.9545 96.2739 20.6706C96.2739 19.3644 95.8631 18.3508 95.0405 17.63C94.2188 16.9092 92.9753 16.5489 91.3091 16.5489H84.5116L86.9107 13.9475V27.3601ZM117.345 36.1442C115.501 36.1442 113.79 35.8402 112.212 35.232C110.658 34.6239 109.303 33.768 108.148 32.6644C107.015 31.5607 106.127 30.2656 105.482 28.779C104.86 27.2925 104.549 25.6709 104.549 23.9141C104.549 22.1572 104.86 20.5356 105.482 19.049C106.127 17.5625 107.026 16.2673 108.181 15.1637C109.336 14.0601 110.692 13.2042 112.246 12.596C113.801 11.988 115.489 11.6838 117.311 11.6838C119.154 11.6838 120.843 11.988 122.375 12.596C123.931 13.2042 125.275 14.0601 126.408 15.1637C127.562 16.2673 128.462 17.5625 129.106 19.049C129.75 20.513 130.072 22.1347 130.072 23.9141C130.072 25.6709 129.75 27.3038 129.106 28.8129C128.462 30.2994 127.562 31.5945 126.408 32.6982C125.275 33.7793 123.931 34.6239 122.375 35.232C120.843 35.8402 119.165 36.1442 117.345 36.1442ZM117.311 31.4819C118.355 31.4819 119.31 31.3017 120.176 30.9414C121.065 30.5809 121.843 30.0629 122.509 29.3872C123.175 28.7115 123.686 27.912 124.041 26.9885C124.419 26.065 124.608 25.0402 124.608 23.9141C124.608 22.7879 124.419 21.7631 124.041 20.8396C123.686 19.9161 123.175 19.1166 122.509 18.4409C121.865 17.7652 121.098 17.2471 120.209 16.8868C119.321 16.5264 118.355 16.3462 117.311 16.3462C116.267 16.3462 115.3 16.5264 114.412 16.8868C113.545 17.2471 112.78 17.7652 112.113 18.4409C111.446 19.1166 110.924 19.9161 110.547 20.8396C110.191 21.7631 110.014 22.7879 110.014 23.9141C110.014 25.0176 110.191 26.0425 110.547 26.9885C110.924 27.912 111.435 28.7115 112.08 29.3872C112.746 30.0629 113.523 30.5809 114.412 30.9414C115.3 31.3017 116.267 31.4819 117.311 31.4819ZM139.128 22.7316H150.323V27.1236H139.128V22.7316ZM139.528 35.7388H134.129V12.0893H151.756V16.4814H139.528V35.7388ZM155.41 35.7388V12.0893H160.808V35.7388H155.41Z" fill="white"/>
</svg>
