<?xml version="1.0" encoding="utf-8"?><svg viewBox="0 0 502.66 502.66" xmlns="http://www.w3.org/2000/svg" xmlns:xlink="http://www.w3.org/1999/xlink"><style>:root>svg{display:none}:root>svg:target{display:block}</style><svg viewBox="0 0 164 48" id="big-logo" xmlns="http://www.w3.org/2000/svg"><path fill-rule="evenodd" clip-rule="evenodd" d="M20.305 0h26.552v47.51H0V0h16.14v22.663l3.106-3.15.06.06 8.371-8.488h8.83l.003.003-12.787 12.965L41.65 42.23V5.279H20.305V0zm12.511 42.231L16.14 25.323v11.63h-5.206V5.278H5.206V42.23h27.61z"/><path d="M57.433 35.739v-23.65H67.53c2.089 0 3.888.35 5.398 1.048 1.511.675 2.677 1.655 3.5 2.939.821 1.284 1.232 2.815 1.232 4.595 0 1.757-.411 3.277-1.233 4.56-.822 1.284-1.988 2.276-3.499 2.974-1.51.676-3.31 1.013-5.398 1.013h-7.097l2.4-2.466v8.987h-5.399zm5.398-8.379l-2.399-2.601h6.798c1.666 0 2.91-.36 3.731-1.082.823-.72 1.233-1.723 1.233-3.006 0-1.307-.41-2.32-1.233-3.04-.821-.722-2.065-1.082-3.731-1.082h-6.798l2.4-2.601V27.36zm18.682 8.379v-23.65h10.096c2.088 0 3.887.35 5.398 1.048 1.51.675 2.676 1.655 3.499 2.939.821 1.284 1.232 2.815 1.232 4.595 0 1.757-.411 3.277-1.232 4.56-.823 1.262-1.989 2.23-3.5 2.906-1.51.676-3.309 1.014-5.397 1.014h-7.097l2.399-2.399v8.987h-5.398zm14.828 0l-5.832-8.581h5.765l5.897 8.58h-5.83zm-9.43-8.379l-2.4-2.567h6.798c1.666 0 2.91-.36 3.731-1.082.823-.743 1.234-1.756 1.234-3.04 0-1.307-.41-2.32-1.234-3.04-.821-.722-2.065-1.082-3.73-1.082h-6.798l2.399-2.601V27.36zm30.434 8.784c-1.844 0-3.555-.304-5.133-.912a12.305 12.305 0 01-4.064-2.568 12.072 12.072 0 01-2.666-3.885c-.622-1.486-.933-3.108-.933-4.865 0-1.757.311-3.378.933-4.865a11.825 11.825 0 012.699-3.885 12.31 12.31 0 014.065-2.568c1.555-.608 3.243-.912 5.065-.912 1.843 0 3.532.304 5.064.912 1.556.608 2.9 1.464 4.033 2.568a11.823 11.823 0 012.698 3.885c.644 1.464.966 3.086.966 4.865 0 1.757-.322 3.39-.966 4.899a11.822 11.822 0 01-2.698 3.885c-1.133 1.081-2.477 1.926-4.033 2.534-1.532.608-3.21.912-5.03.912zm-.034-4.662c1.044 0 1.999-.18 2.865-.54a6.858 6.858 0 003.865-3.954c.378-.923.567-1.948.567-3.074s-.189-2.15-.567-3.074a6.901 6.901 0 00-1.532-2.4 6.52 6.52 0 00-2.3-1.553c-.888-.36-1.854-.54-2.898-.54s-2.011.18-2.899.54a6.948 6.948 0 00-2.299 1.554 7.3 7.3 0 00-1.566 2.399c-.356.923-.533 1.948-.533 3.074 0 1.104.177 2.129.533 3.074a7.584 7.584 0 001.533 2.4 6.854 6.854 0 002.332 1.553c.888.36 1.855.54 2.899.54zm21.817-8.75h11.195v4.392h-11.195v-4.392zm.4 13.007h-5.399v-23.65h17.627v4.392h-12.228V35.74zm15.882 0v-23.65h5.398v23.65h-5.398z"/></svg><svg viewBox="0 0 164 48" id="big-logo-inversed" xmlns="http://www.w3.org/2000/svg"><path fill-rule="evenodd" clip-rule="evenodd" d="M20.305 0h26.552v47.51H0V0h16.14v22.663l3.106-3.15.06.06 8.371-8.488h8.83l.003.003-12.787 12.965L41.65 42.23V5.279H20.305V0zm12.511 42.231L16.14 25.323v11.63h-5.206V5.278H5.206V42.23h27.61z"/><path d="M57.433 35.739v-23.65H67.53c2.089 0 3.888.35 5.398 1.048 1.511.675 2.677 1.655 3.5 2.939.821 1.284 1.232 2.815 1.232 4.595 0 1.756-.411 3.277-1.233 4.56-.822 1.284-1.988 2.275-3.499 2.974-1.51.675-3.31 1.013-5.398 1.013h-7.097l2.4-2.466v8.987h-5.399zm5.398-8.379l-2.399-2.601h6.798c1.666 0 2.91-.36 3.731-1.082.823-.72 1.233-1.723 1.233-3.006 0-1.307-.41-2.32-1.233-3.041-.821-.72-2.065-1.081-3.731-1.081h-6.798l2.4-2.601V27.36zm18.682 8.379v-23.65h10.096c2.088 0 3.887.35 5.398 1.048 1.51.675 2.676 1.655 3.499 2.939.821 1.284 1.232 2.815 1.232 4.595 0 1.756-.411 3.277-1.232 4.56-.823 1.262-1.989 2.23-3.5 2.906-1.51.676-3.309 1.014-5.397 1.014h-7.097l2.399-2.399v8.987h-5.398zm14.828 0l-5.832-8.582h5.765l5.897 8.582h-5.83zm-9.43-8.379l-2.4-2.567h6.798c1.666 0 2.91-.361 3.731-1.082.823-.743 1.234-1.756 1.234-3.04 0-1.307-.41-2.32-1.234-3.041-.821-.72-2.065-1.081-3.73-1.081h-6.798l2.399-2.601V27.36zm30.434 8.784c-1.844 0-3.555-.304-5.133-.912a12.305 12.305 0 01-4.064-2.568 12.072 12.072 0 01-2.666-3.885c-.622-1.486-.933-3.108-.933-4.865 0-1.757.311-3.378.933-4.865a11.825 11.825 0 012.699-3.885 12.311 12.311 0 014.065-2.568c1.555-.608 3.243-.912 5.065-.912 1.843 0 3.532.304 5.064.912 1.556.608 2.9 1.464 4.033 2.568a11.822 11.822 0 012.698 3.885c.644 1.464.966 3.086.966 4.865 0 1.757-.322 3.39-.966 4.899a11.823 11.823 0 01-2.698 3.885c-1.133 1.081-2.477 1.926-4.033 2.534-1.532.608-3.21.912-5.03.912zm-.034-4.662c1.044 0 1.999-.18 2.865-.54a6.86 6.86 0 003.865-3.954c.378-.923.567-1.948.567-3.074s-.189-2.15-.567-3.074a6.901 6.901 0 00-1.532-2.4 6.52 6.52 0 00-2.3-1.553c-.888-.36-1.854-.54-2.898-.54s-2.011.18-2.899.54a6.946 6.946 0 00-2.299 1.554 7.3 7.3 0 00-1.566 2.399c-.356.923-.533 1.948-.533 3.074 0 1.104.177 2.128.533 3.074a7.584 7.584 0 001.533 2.4 6.855 6.855 0 002.332 1.553c.888.36 1.855.54 2.899.54zm21.817-8.75h11.195v4.392h-11.195v-4.392zm.4 13.007h-5.399v-23.65h17.627v4.392h-12.228V35.74zm15.882 0v-23.65h5.398v23.65h-5.398z"/></svg><svg viewBox="0 0 502.664 502.664" id="icon" xmlns="http://www.w3.org/2000/svg"><path d="M153.821 358.226L0 274.337v-46.463l153.821-83.414v54.574L46.636 250.523l107.185 53.431v54.272zm26.273 29.358L282.103 115.08h32.227L212.084 387.584h-31.99zm168.749-29.358v-54.272l107.164-52.999-107.164-52.59v-53.927l153.821 83.522v46.183l-153.821 84.083z"/></svg><svg viewBox="0 0 14 16" id="location" xmlns="http://www.w3.org/2000/svg"><path d="M7 8.667a2 2 0 100-4 2 2 0 000 4z"/><path d="M7 14.667c2.667-2.667 5.334-5.055 5.334-8a5.333 5.333 0 10-10.667 0c0 2.945 2.667 5.333 5.333 8z"/></svg><svg viewBox="0 0 47 48" id="logo" xmlns="http://www.w3.org/2000/svg"><path fill-rule="evenodd" clip-rule="evenodd" d="M20.305 0h26.552v47.51H0V0h16.14v22.663l3.106-3.15.06.06 8.371-8.488h8.83l.003.003-12.787 12.965L41.65 42.23V5.279H20.305V0zm12.511 42.231L16.14 25.323v11.63h-5.206V5.278H5.206V42.23h27.61z"/></svg></svg>